# xmcd
#
# Track frame offsets:
#	150
#	10457
#	19969
#	29121
#	40871
#	50888
#	60962
#	70999
#	80631
#	91881
#
# Disc length: 1374 seconds
#
# Revision: 0
# Processed by: cddbd v1.5.2PL0 Copyright (c) Steve Scherf et al.
# Submitted via: EasyCDDAExtractor 16.0.1.1
#
DISCID=87055c0a
DTITLE=Porter Wagoner - Your Old Love Letters
DYEAR=1966
DGENRE=Country
TTITLE0=Your Old Love Letters
TTITLE1=Tryin' To Forget The Blues
TTITLE2=Pay Day
TTITLE3=I Should Be With You
TTITLE4=Heartbreak Affair
TTITLE5=Out Of Sight Out Of Mind
TTITLE6=Seeing Her Only Reminded Me Of You
TTITLE7=Tell Her Lies And Feed Her Candy
TTITLE8=Bad News Travels Fast
TTITLE9=Haven't You Heard
EXTD=
EXTT0=
EXTT1=
EXTT2=
EXTT3=
EXTT4=
EXTT5=
EXTT6=
EXTT7=
EXTT8=
EXTT9=
PLAYORDER=
